<svg xmlns="http://www.w3.org/2000/svg" width="960" height="540" viewBox="0 0 960 540" role="img" aria-label="مخبوزات طازجة"><defs><linearGradient id="bg" x1="0" x2="1" y1="0" y2="1"><stop offset="0" stop-color="#fff7ed"/><stop offset="0.52" stop-color="#f8fafc"/><stop offset="1" stop-color="#ecfeff"/></linearGradient><linearGradient id="loaf" x1="0" x2="1"><stop offset="0" stop-color="#b45309"/><stop offset="1" stop-color="#f59e0b"/></linearGradient><filter id="shadow" x="-20%" y="-20%" width="140%" height="140%"><feDropShadow dx="0" dy="18" stdDeviation="18" flood-color="#78350f" flood-opacity="0.18"/></filter></defs><rect width="960" height="540" fill="url(#bg)"/><g opacity="0.38"><circle cx="120" cy="104" r="72" fill="#14b8a6"/><circle cx="840" cy="418" r="96" fill="#f97316"/><circle cx="745" cy="94" r="46" fill="#0f766e"/></g><g filter="url(#shadow)" transform="translate(168 126)"><ellipse cx="304" cy="202" rx="292" ry="150" fill="#fef3c7"/><path d="M60 206c0-83 98-150 244-150s244 67 244 150c0 62-58 116-142 139-35 10-70 15-102 15s-67-5-102-15C118 322 60 268 60 206z" fill="url(#loaf)"/><path d="M154 174c34-47 82-73 142-78" fill="none" stroke="#fff7ed" stroke-width="18" stroke-linecap="round" opacity="0.72"/><path d="M276 142c38-34 86-48 142-42" fill="none" stroke="#fff7ed" stroke-width="18" stroke-linecap="round" opacity="0.7"/><path d="M376 180c38-29 80-39 128-30" fill="none" stroke="#fff7ed" stroke-width="18" stroke-linecap="round" opacity="0.66"/><g fill="#78350f" opacity="0.16"><circle cx="164" cy="254" r="8"/><circle cx="224" cy="284" r="6"/><circle cx="338" cy="264" r="7"/><circle cx="442" cy="244" r="6"/><circle cx="496" cy="210" r="5"/></g></g></svg>